<svg width="72" height="72" viewBox="0 0 72 72" fill="none" xmlns="http://www.w3.org/2000/svg">
<g style="mix-blend-mode:luminosity">
<path fill-rule="evenodd" clip-rule="evenodd" d="M19.2599 36.54H22.1399L20.6999 32.94L19.2599 36.54ZM59.3999 29.7H52.0199L50.2199 31.68L48.5999 29.7H32.9399L31.4999 32.94L30.0599 29.7H23.7599V31.14L23.0399 29.7H17.6399L12.4199 42.3H18.7199L19.4399 40.32H21.2399L21.9599 42.3H28.9799V40.86L29.5199 42.3H33.1199L33.6599 40.68V42.3H48.0599L49.8599 40.32L51.4799 42.3H58.8599L54.1799 36L59.3999 29.7ZM37.6199 40.5H35.6399V33.48L32.5799 40.5H30.7799L27.7199 33.48V40.5H23.5799L22.8599 38.52H18.5399L17.8199 40.5H15.4799L19.2599 31.5H22.3199L25.7399 39.96V31.5H29.1599L31.8599 37.62L34.3799 31.5H37.7999V40.5H37.6199ZM55.4399 40.5H52.7399L50.3999 37.44L47.6999 40.5H39.5999V31.5H47.8799L50.3999 34.38L53.0999 31.5H55.6199L51.6599 36L55.4399 40.5ZM41.5799 33.3V34.92H46.0799V36.72H41.5799V38.52H46.6199L48.9599 35.82L46.7999 33.3H41.5799Z" fill="white"/>
</g>
</svg>
