<svg width="73" height="72" viewBox="0 0 73 72" fill="none" xmlns="http://www.w3.org/2000/svg">
<g style="mix-blend-mode:luminosity">
<path fill-rule="evenodd" clip-rule="evenodd" d="M19.6249 41.2875H16.9249L18.4999 33.075L14.8999 41.2875H12.5374L12.0874 33.075L10.5124 41.2875H8.1499L10.1749 30.4875H14.3374L14.5624 37.2375L17.4874 30.4875H21.7624L19.6249 41.2875Z" fill="white"/>
<path fill-rule="evenodd" clip-rule="evenodd" d="M17.0375 36.5625L18.6125 33.075L17.375 39.6C17.4875 40.1625 17.6 40.8375 17.825 41.4H19.625L21.65 30.6H17.7125C17.2625 32.2875 16.925 34.2 16.925 36.1125C17.0375 36.225 17.0375 36.3375 17.0375 36.5625ZM49.1 41.175C48.3125 41.4 47.8625 41.5125 47.1875 41.5125C45.8375 41.5125 45.1625 40.8375 45.1625 39.6C45.1625 39.375 45.1625 39.15 45.275 38.8125L45.3876 37.9125L45.5 37.2375L46.7375 30.6H49.3251L48.9875 32.625H50.3375L50 34.65H48.65L47.975 38.25C47.975 38.3625 47.8625 38.5875 47.8625 38.5875C47.8625 39.0375 48.2001 39.2625 48.7626 39.2625C49.1001 39.2625 49.325 39.2625 49.4375 39.15L49.1 41.175ZM56.8625 32.625C56.6376 32.5125 56.6375 32.5125 56.525 32.5125C56.4125 32.5125 56.3 32.5125 56.3 32.4H55.9625C55.0625 32.4 54.5 32.7375 53.7125 33.8625L53.9375 32.5125H51.5751L50 41.2875H52.7001C53.6001 35.8875 54.05 34.9875 55.2875 34.9875H55.625L55.9625 35.1L56.8625 32.625ZM38.6376 35.325C38.6376 36.45 39.3125 37.2375 40.6625 37.6875C41.7875 38.1375 41.9 38.25 41.9 38.7C41.9 39.2625 41.4501 39.4875 40.3251 39.4875C39.5375 39.4875 38.75 39.375 37.9625 39.15L37.625 41.175H37.7375L38.1875 41.2875H38.8625C39.5375 41.4 39.9876 41.4 40.3251 41.4C43.1376 41.4 44.4875 40.5 44.4875 38.475C44.4875 37.2375 43.9251 36.5625 42.5751 36C41.4501 35.55 41.3375 35.4375 41.3375 35.1C41.3375 34.65 41.7875 34.425 42.6875 34.425C43.1375 34.425 43.925 34.425 44.6 34.5375L44.9375 32.5125C44.2625 32.4 43.25 32.4 42.5751 32.4C39.6501 32.4 38.6376 33.75 38.6376 35.325ZM28.175 41.2875H26.0375V40.3875C25.3625 41.0625 24.4625 41.4 23.225 41.4C21.7625 41.4 20.8625 40.3875 20.8625 39.0375C20.8625 36.9 22.55 35.6625 25.475 35.6625H26.6C26.7125 35.325 26.7125 35.2125 26.7125 35.1C26.7125 34.5375 26.2625 34.3125 25.025 34.3125C24.2375 34.3125 23.45 34.425 22.8875 34.5375L22.55 34.65H22.325L22.6625 32.7375C24.0125 32.4 24.8 32.2875 25.8125 32.2875C28.0625 32.2875 29.3 33.1875 29.3 34.875C29.3 35.325 29.3 35.6625 29.075 36.675L28.5125 39.825L28.4 40.3875L28.2875 40.8375V41.175L28.175 41.2875ZM26.2625 37.35H25.7C24.2375 37.35 23.45 37.8 23.45 38.7C23.45 39.2625 23.7875 39.6 24.35 39.6C25.475 39.6 26.2625 38.7 26.2625 37.35ZM36.8375 41.0625C35.9375 41.2875 35.0375 41.4 34.1375 41.4C31.2125 41.4 29.6375 40.05 29.6375 37.4625C29.6375 34.425 31.55 32.2875 34.25 32.2875C36.3875 32.2875 37.7375 33.525 37.7375 35.4375C37.7375 36.1125 37.625 36.675 37.4 37.575H32.1125V37.9125C32.1125 38.925 32.9 39.4875 34.3625 39.4875C35.375 39.4875 36.1625 39.375 37.0625 38.925L36.8375 41.0625ZM35.4875 35.8875V35.4375C35.4875 34.7625 35.0375 34.3125 34.25 34.3125C33.4625 34.3125 32.7875 34.875 32.5625 35.8875H35.4875Z" fill="white"/>
<path fill-rule="evenodd" clip-rule="evenodd" d="M65.0751 37.35C64.6251 40.275 62.6 41.5125 59.9 41.5125C56.975 41.5125 55.7375 39.7125 55.7375 37.4625C55.7375 34.425 57.7626 32.2875 60.9126 32.2875C63.6126 32.2875 65.0751 34.0875 65.0751 36.225V37.35ZM62.2626 36.225C62.2626 35.325 61.925 34.5375 60.8 34.5375C59.45 34.5375 58.6626 36.1125 58.6626 37.575C58.6626 38.7 59.2251 39.4875 60.1251 39.4875C60.6876 39.4875 61.925 38.7 62.15 37.35C62.2625 36.9 62.2626 36.5625 62.2626 36.225Z" fill="white"/>
<path fill-rule="evenodd" clip-rule="evenodd" d="M55.85 38.475C55.9625 37.6875 56.075 36.7875 56.075 36V35.775C55.9625 36.3375 55.85 36.9 55.85 37.575C55.7375 37.8 55.7375 38.1375 55.85 38.475Z" fill="white"/>
</g>
</svg>
