<svg width="73" height="72" viewBox="0 0 73 72" fill="none" xmlns="http://www.w3.org/2000/svg">
<g style="mix-blend-mode:luminosity">
<path d="M55.85 31.725H52.0249C51.7999 31.725 51.5749 31.95 51.4624 32.175L49.8875 42.075C49.8875 42.3 50 42.4125 50.225 42.4125H52.2499C52.4749 42.4125 52.5874 42.3 52.5874 42.075L53.0375 39.2625C53.0375 39.0375 53.2625 38.8125 53.6 38.8125H54.8374C57.4249 38.8125 58.8875 37.575 59.225 35.1C59.45 34.0875 59.2249 33.1875 58.7749 32.625C58.0999 32.0625 57.0875 31.725 55.85 31.725ZM56.2999 35.4375C56.0749 36.7875 55.0624 36.7875 54.0499 36.7875H53.3749L53.825 34.2C53.825 34.0875 53.9375 33.975 54.1625 33.975H54.3875C55.0625 33.975 55.7375 33.975 56.075 34.425C56.3 34.5375 56.2999 34.875 56.2999 35.4375Z" fill="white"/>
<path d="M28.2875 31.725H24.4625C24.2375 31.725 24.0125 31.95 23.9 32.175L22.325 42.075C22.325 42.3 22.4375 42.4125 22.6625 42.4125H24.4625C24.6875 42.4125 24.9125 42.1875 25.025 41.9625L25.475 39.2625C25.475 39.0375 25.7 38.8125 26.0375 38.8125H27.275C29.8625 38.8125 31.325 37.575 31.6625 35.1C31.8875 34.0875 31.6625 33.1875 31.2125 32.625C30.5375 32.0625 29.6375 31.725 28.2875 31.725ZM28.7375 35.4375C28.5125 36.7875 27.5 36.7875 26.4875 36.7875H25.925L26.375 34.2C26.375 34.0875 26.4875 33.975 26.7125 33.975H26.9375C27.6125 33.975 28.2875 33.975 28.625 34.425C28.7375 34.5375 28.85 34.875 28.7375 35.4375ZM39.875 35.325H38.075C37.9625 35.325 37.7374 35.4375 37.7374 35.55L37.625 36.1125L37.5125 35.8875C37.0625 35.325 36.275 35.1 35.375 35.1C33.35 35.1 31.55 36.675 31.2125 38.8125C30.9875 39.9375 31.325 40.95 31.8875 41.625C32.45 42.3 33.2375 42.525 34.25 42.525C35.9375 42.525 36.8375 41.5125 36.8375 41.5125L36.725 42.075C36.725 42.3 36.8375 42.4125 37.0625 42.4125H38.75C38.975 42.4125 39.2 42.1875 39.3125 41.9625L40.325 35.6625C40.2125 35.55 39.9875 35.325 39.875 35.325ZM37.2875 38.925C37.0625 39.9375 36.275 40.725 35.15 40.725C34.5875 40.725 34.1375 40.5 33.9125 40.275C33.6875 39.9375 33.575 39.4875 33.575 38.925C33.6875 37.9125 34.5875 37.125 35.6 37.125C36.1625 37.125 36.5 37.35 36.8375 37.575C37.175 37.9125 37.2875 38.475 37.2875 38.925Z" fill="white"/>
<path d="M67.325 35.325H65.525C65.4125 35.325 65.1875 35.4375 65.1875 35.55L65.075 36.1125L64.9625 35.8875C64.5125 35.325 63.725 35.1 62.825 35.1C60.8 35.1 59 36.675 58.6625 38.8125C58.4375 39.9375 58.775 40.95 59.3375 41.625C59.9 42.3 60.6875 42.525 61.7 42.525C63.3875 42.525 64.2875 41.5125 64.2875 41.5125L64.175 42.075C64.175 42.3 64.2875 42.4125 64.5125 42.4125H66.2C66.425 42.4125 66.65 42.1875 66.7625 41.9625L67.775 35.6625C67.6625 35.55 67.55 35.325 67.325 35.325ZM64.7375 38.925C64.5125 39.9375 63.725 40.725 62.6 40.725C62.0375 40.725 61.5875 40.5 61.3625 40.275C61.1375 39.9375 61.025 39.4875 61.025 38.925C61.1375 37.9125 62.0375 37.125 63.05 37.125C63.6125 37.125 63.95 37.35 64.2875 37.575C64.7375 37.9125 64.85 38.475 64.7375 38.925Z" fill="white"/>
<path d="M49.6625 35.325H47.75C47.525 35.325 47.4125 35.4375 47.3 35.55L44.825 39.375L43.7 35.775C43.5875 35.55 43.475 35.4375 43.1375 35.4375H41.3375C41.1125 35.4375 41 35.6625 41 35.8875L43.025 41.85L41.1125 44.55C41 44.775 41.1125 45.1125 41.3375 45.1125H43.1375C43.3625 45.1125 43.475 45 43.5875 44.8875L49.775 36C50.1125 35.6625 49.8875 35.325 49.6625 35.325Z" fill="white"/>
<path d="M69.4624 32.0625L67.8875 42.1875C67.8875 42.4125 68 42.525 68.225 42.525H69.7999C70.0249 42.525 70.2499 42.3 70.3624 42.075L71.9374 32.175C71.9374 31.95 71.825 31.8375 71.6 31.8375H69.7999C69.6874 31.725 69.5749 31.8375 69.4624 32.0625Z" fill="white"/>
<path d="M14 28.35C13.2125 27.45 11.75 27 9.725 27H4.1C3.7625 27 3.425 27.3375 3.3125 27.675L1.0625 42.4125C1.0625 42.75 1.2875 42.975 1.5125 42.975H5L5.9 37.4625V37.6875C6.0125 37.35 6.35 37.0125 6.6875 37.0125H8.375C11.6375 37.0125 14.1125 35.6625 14.9 31.95V31.6125C14.7875 31.6125 14.7875 31.6125 14.9 31.6125C15.0125 30.15 14.7875 29.25 14 28.35Z" fill="white"/>
<path d="M14.7876 31.6125V31.95C14.0001 35.775 11.5251 37.0125 8.2626 37.0125H6.5751C6.2376 37.0125 5.9001 37.35 5.7876 37.6875L4.6626 44.55C4.6626 44.775 4.7751 45 5.1126 45H8.0376C8.3751 45 8.7126 44.775 8.7126 44.4375V44.325L9.2751 40.8375V40.6125C9.2751 40.275 9.6126 40.05 9.9501 40.05H10.4001C13.2126 40.05 15.4626 38.925 16.0251 35.55C16.2501 34.2 16.1376 32.9625 15.4626 32.175C15.3501 31.95 15.1251 31.725 14.7876 31.6125Z" fill="white"/>
<path d="M13.9999 31.275C13.8874 31.275 13.7749 31.1625 13.6624 31.1625C13.5499 31.1625 13.4374 31.1625 13.3249 31.05C12.8749 30.9375 12.4249 30.9375 11.8624 30.9375H7.4749C7.3624 30.9375 7.2499 30.9375 7.1374 31.05C6.9124 31.1625 6.7999 31.3875 6.7999 31.6125L5.8999 37.4625V37.6875C6.0124 37.35 6.3499 37.0125 6.6874 37.0125H8.3749C11.6374 37.0125 14.1124 35.6625 14.8999 31.95C14.8999 31.8375 14.8999 31.725 15.0124 31.6125C14.7874 31.5 14.6749 31.3875 14.4499 31.3875C14.1124 31.275 14.1124 31.275 13.9999 31.275Z" fill="white"/>
</g>
</svg>
