<svg width="25" height="24" viewBox="0 0 25 24" fill="none" xmlns="http://www.w3.org/2000/svg">
<g clip-path="url(#clip0_404_4940)">
<g style="mix-blend-mode:luminosity">
<path d="M11.8625 13.711C12.1156 13.4579 12.5515 13.4579 12.8047 13.711L16.414 17.3204C17.0797 17.986 17.9656 18.3516 18.9031 18.3516H19.6109L15.0594 22.9032C13.639 24.286 11.3328 24.286 9.91248 22.9032L5.34216 18.3375H5.7781C6.7156 18.3375 7.60154 17.9719 8.26716 17.3063L11.8625 13.711ZM12.8047 10.261C12.5047 10.5188 12.1203 10.5235 11.8625 10.261L8.26716 6.66566C7.60154 5.95785 6.7156 5.63441 5.7781 5.63441H5.34216L9.90779 1.06691C11.3328 -0.355556 13.639 -0.355556 15.0594 1.06691L19.6156 5.62035H18.9031C17.9656 5.62035 17.0797 5.98597 16.414 6.6516L12.8047 10.261ZM5.7781 6.6891C6.42498 6.6891 7.02029 6.9516 7.51716 7.41098L11.1125 11.0063C11.45 11.3016 11.8906 11.5125 12.3359 11.5125C12.7765 11.5125 13.2172 11.3016 13.5547 11.0063L17.164 7.39691C17.6234 6.94222 18.2562 6.67972 18.9031 6.67972H20.6703L23.4031 9.41254C24.8234 10.8329 24.8234 13.1391 23.4031 14.5594L20.6703 17.2922H18.9031C18.2562 17.2922 17.6234 17.0297 17.164 16.5704L13.5547 12.961C12.9031 12.3094 11.764 12.3094 11.1125 12.9657L7.51716 16.5563C7.02029 17.0157 6.42498 17.2782 5.7781 17.2782H4.28654L1.56685 14.5594C0.144383 13.1391 0.144383 10.8329 1.56685 9.41254L4.28654 6.6891H5.7781Z" fill="white"/>
</g>
</g>
<defs>
<clipPath id="clip0_404_4940">
<rect width="24" height="24" fill="white" transform="translate(0.5)"/>
</clipPath>
</defs>
</svg>
