<svg width="40" height="40" viewBox="0 0 40 40" fill="none" xmlns="http://www.w3.org/2000/svg">
<g style="mix-blend-mode:luminosity">
<path fill-rule="evenodd" clip-rule="evenodd" d="M16.51 14.4098L14.6768 25.676H17.6098L19.4432 14.4098H16.51V14.4098ZM12.2091 14.4098L9.41267 22.1586L9.08188 20.49L9.08212 20.4906L9.00923 20.1166C8.67079 19.3872 7.88696 18.0009 6.40688 16.8179C5.99274 16.4878 5.55671 16.1861 5.10181 15.9148L7.64329 25.676H10.6992L15.3659 14.4098H12.2091V14.4098ZM23.656 17.5375C23.656 16.2638 26.5125 16.4274 27.7677 17.1191L28.1862 14.6994C28.1862 14.6994 26.8945 14.2081 25.5481 14.2081C24.0924 14.2081 20.6359 14.8447 20.6359 17.9377C20.6359 20.8487 24.6928 20.8848 24.6928 22.4131C24.6928 23.9414 21.0542 23.6683 19.8534 22.7042L19.417 25.2334C19.417 25.2334 20.7267 25.8699 22.7281 25.8699C24.7294 25.8699 27.7494 24.8331 27.7494 22.0129C27.7494 19.0838 23.656 18.8109 23.656 17.5375V17.5375ZM35.6248 14.4098H33.2666C32.1777 14.4098 31.9125 15.2494 31.9125 15.2494L27.5384 25.676H30.5956L31.2071 24.0027H34.9359L35.2799 25.676H37.973L35.6248 14.4098V14.4098ZM32.0524 21.6907L33.5936 17.4746L34.4606 21.6907H32.0524V21.6907Z" fill="white"/>
<path fill-rule="evenodd" clip-rule="evenodd" d="M8.13534 15.4705C8.13534 15.4705 8.01393 14.4537 6.71784 14.4537H2.00901L1.95386 14.6448C1.95386 14.6448 4.21729 15.1062 6.38878 16.8348C8.46393 18.487 9.14089 20.5466 9.14089 20.5466L8.13534 15.4705Z" fill="white"/>
</g>
</svg>
